<svg width="12" height="16" viewBox="0 0 12 16" fill="none" xmlns="http://www.w3.org/2000/svg">
<path fill-rule="evenodd" clip-rule="evenodd" d="M0.782227 2.33339C0.782227 1.28497 1.63214 0.435059 2.68056 0.435059H9.34723C10.3956 0.435059 11.2456 1.28497 11.2456 2.33339V13.6667C11.2456 14.7151 10.3956 15.5651 9.34723 15.5651H2.68056C1.63214 15.5651 0.782227 14.7151 0.782227 13.6667V2.33339ZM2.68056 1.56506C2.25622 1.56506 1.91223 1.90905 1.91223 2.33339V13.6667C1.91223 14.0911 2.25622 14.4351 2.68056 14.4351H9.34723C9.77156 14.4351 10.1156 14.0911 10.1156 13.6667V2.33339C10.1156 1.90905 9.77157 1.56506 9.34723 1.56506H2.68056Z" fill="#505050"/>
<path d="M8.01367 7.5C8.01367 7.22386 8.23753 7 8.51367 7H8.64367C8.91981 7 9.14367 7.22386 9.14367 7.5V8.5C9.14367 8.77614 8.91981 9 8.64367 9H8.51367C8.23753 9 8.01367 8.77614 8.01367 8.5V7.5Z" fill="#505050"/>
</svg>
