<svg xmlns="http://www.w3.org/2000/svg" width="160" height="160" viewBox="0 0 160 160">
    <g fill="none" fill-rule="evenodd">
        <rect width="160" height="160" fill="#E8EDFA" rx="80"/>
        <g stroke="#131840" stroke-linecap="round" stroke-linejoin="round" stroke-width="6" transform="translate(40 52)">
            <path d="M46.545 52.364v-5.819c0-6.426-5.21-11.636-11.636-11.636H11.636C5.21 34.91 0 40.12 0 46.545v5.819"/>
            <circle cx="23.273" cy="11.636" r="11.636"/>
            <path d="M64 52.364v-5.819c-.004-5.302-3.593-9.932-8.727-11.258M80.364 52.364v-5.819c-.004-5.302-3.593-9.932-8.728-11.258M43.636.378c5.15 1.318 8.75 5.958 8.75 11.273 0 5.315-3.6 9.954-8.75 11.273M60 .378c5.149 1.318 8.75 5.958 8.75 11.273 0 5.315-3.601 9.954-8.75 11.273"/>
        </g>
    </g>
</svg>
