<svg width="53" height="30" viewBox="0 0 53 30" fill="none" xmlns="http://www.w3.org/2000/svg">
<rect width="53" height="30" fill="none"/>
<path fill-rule="evenodd" clip-rule="evenodd" d="M5.31767 22.6222L5.31768 22.6216C5.3185 21.9512 5.31934 21.2747 5.31934 20.5902C5.89289 21.0366 6.31634 21.4741 6.72667 21.9226C8.54256 23.9073 9.99523 26.1591 11.3965 28.4464C11.5711 28.7317 11.7482 28.8599 12.0945 28.8559C13.8156 28.8364 15.5372 28.8363 17.2585 28.8547C17.6839 28.8592 17.7226 28.7682 17.5223 28.4032C15.5311 24.7729 13.1233 21.4574 10.2085 18.5272C9.94945 18.2669 9.9429 18.1452 10.2032 17.8897C12.1289 16.0002 13.9441 14.0045 15.7193 11.9714C16.1082 11.526 16.4958 11.0794 16.9057 10.6073C17.0956 10.3884 17.2904 10.1641 17.4922 9.93181L16.04 9.93207C14.4466 9.93251 12.9017 9.93293 11.3567 9.92844C11.168 9.92781 11.0829 10.0438 10.9973 10.1605L10.9973 10.1605C10.9771 10.188 10.9569 10.2156 10.9352 10.2417C9.22367 12.3044 7.48067 14.3392 5.66156 16.3064C5.64053 16.3291 5.62211 16.3571 5.60319 16.3859L5.60318 16.3859L5.60318 16.3859C5.54441 16.4751 5.48082 16.5717 5.31945 16.5403V16.0346C5.31945 14.9663 5.3191 13.898 5.31876 12.8297C5.31753 9.05728 5.31631 5.2849 5.33034 1.51259C5.33212 1.0241 5.23389 0.941411 4.75423 1.0324C3.32056 1.30413 1.87667 1.52471 0.431891 1.72923C0.0606686 1.78174 0.00277968 1.93791 0.0030019 2.26967C0.0107797 10.9792 0.0120019 19.6887 1.90307e-06 28.3983C-0.000553653 28.7838 0.120446 28.8589 0.468891 28.8545C1.894 28.8369 3.31967 28.8288 4.74434 28.8577C5.19812 28.867 5.33489 28.7482 5.33045 28.2762C5.313 26.408 5.31531 24.5395 5.31767 22.6222ZM42.8496 10.2961C41.1739 9.78411 39.4692 9.48548 38.0998 9.49509C36.7799 9.48246 35.8456 9.52717 34.9351 9.76288C32.9827 10.2684 31.3441 11.2233 30.645 13.2724C29.8505 15.601 30.2403 18.7784 33.3888 20.3539C34.0852 20.7023 34.8047 20.9931 35.5241 21.2839C35.9577 21.4591 36.3913 21.6344 36.8198 21.8222L36.8843 21.8504C37.3998 22.0761 37.9177 22.3029 38.359 22.6653C38.7573 22.9925 38.9497 23.3959 38.8261 23.9418C38.7053 24.4749 38.3483 24.7176 37.8762 24.8245C37.5565 24.8968 37.2256 24.934 36.8979 24.9521C34.9122 25.0617 32.9992 24.6961 31.1474 23.9881C30.7873 23.8504 30.6763 23.889 30.6038 24.3004C30.4345 25.2607 30.2284 26.2143 30.0224 27.1677L30.0224 27.1678C29.9775 27.3752 29.9327 27.5827 29.8882 27.7901C29.8273 28.0745 29.8954 28.2175 30.1868 28.32C33.3809 29.443 36.6308 29.6892 39.9127 28.8472C42.4024 28.2084 43.865 26.6126 44.0348 24.3647C44.2408 21.6391 43.6187 19.9622 41.0066 18.5484C40.1504 18.0849 39.256 17.7127 38.3543 17.355C38.2775 17.3245 38.2005 17.2942 38.1235 17.2639C37.3997 16.9791 36.6746 16.6938 36.0377 16.2296C35.2109 15.6271 35.3212 14.5058 36.2445 14.0724C36.7008 13.8582 37.1926 13.8036 37.6884 13.7846C39.1718 13.7278 40.6011 14.0266 41.9995 14.4928C42.2849 14.5879 42.3705 14.5545 42.4334 14.2453C42.6631 13.1184 42.9156 11.9959 43.1838 10.8777C43.2655 10.5372 43.1832 10.3981 42.8496 10.2961ZM47.2297 9.88641L47.2327 9.88641C49.0724 9.88758 50.8355 9.88871 52.5986 9.87821C52.9232 9.87629 52.9996 9.97391 52.9992 10.2869C52.9904 16.362 52.9901 22.4371 52.9996 28.5121C53.0001 28.8377 52.9021 28.9221 52.5868 28.9191C51.082 28.9045 49.5767 28.8909 48.0725 28.9252C47.5924 28.9362 47.5932 28.7053 47.5943 28.3786L47.5944 28.3408C47.5963 26.5602 47.5964 24.7795 47.5966 22.9989C47.5969 19.438 47.5972 15.8771 47.611 12.3162C47.613 11.7927 47.4844 11.4438 47.0445 11.1488C46.6872 10.909 46.3524 10.6355 45.9787 10.3302L45.9786 10.3302L45.9784 10.33C45.8054 10.1887 45.624 10.0405 45.4282 9.88566C46.0383 9.88566 46.6379 9.88604 47.2297 9.88641ZM21.8747 9.88487H18.9286C19.0986 10.0486 19.2584 10.2063 19.4125 10.3583C19.7576 10.6988 20.0736 11.0106 20.4099 11.2973C20.7223 11.5637 20.824 11.8493 20.8229 12.262C20.8162 14.9056 20.8151 17.5492 20.8139 20.1928C20.8128 22.9247 20.8116 25.6566 20.8043 28.3884C20.8032 28.8076 20.9005 28.9329 21.3174 28.9252C22.7625 28.8985 24.2086 28.9032 25.6538 28.9231C25.9999 28.9278 26.0771 28.8169 26.0765 28.4768C26.0667 22.4247 26.065 16.3724 26.0794 10.3204C26.0804 9.91625 25.9337 9.87426 25.6075 9.87844C24.7016 9.89003 23.7955 9.88815 22.8895 9.88627C22.5512 9.88557 22.2129 9.88487 21.8747 9.88487Z" fill="Black"/>
</svg>
